<svg xmlns="http://www.w3.org/2000/svg" viewBox="0 0 15 14.571">
  <path id="github" d="M8.7,2.083A7.489,7.489,0,0,0,6.82,16.512a.345.345,0,0,0,.451-.376v-1.2a3.1,3.1,0,0,1-.676.075,1.621,1.621,0,0,1-1.578-1.428,1.559,1.559,0,0,0-.451-.752c-.225-.075-.3-.075-.3-.15,0-.15.225-.15.3-.15.451,0,.827.526.977.752a1.37,1.37,0,0,0,1.052.752,1.5,1.5,0,0,0,.676-.15,1.9,1.9,0,0,1,.752-1.353c-1.729-.376-3.006-1.353-3.006-3.006a3.542,3.542,0,0,1,.9-2.255,2.788,2.788,0,0,1-.15-1.052,2.576,2.576,0,0,1,.225-1.2,3.382,3.382,0,0,1,2.1.977,4.067,4.067,0,0,1,1.428-.225,4.846,4.846,0,0,1,1.5.225,3.24,3.24,0,0,1,2.1-.977,3.735,3.735,0,0,1,.15,1.2,2.5,2.5,0,0,1-.15,1.052,3.386,3.386,0,0,1,.9,2.255c0,1.653-1.278,2.63-3.006,3.006a2.317,2.317,0,0,1,.752,1.729v1.954a.41.41,0,0,0,.526.376A7.545,7.545,0,0,0,8.7,2.083Z" transform="translate(-2.041 -2.031)" fill="currentColor"/>
</svg>
