<svg xmlns="http://www.w3.org/2000/svg" viewBox="0 0 15 15">
  <path id="linkedin" d="M17.636,4H5.364A1.363,1.363,0,0,0,4,5.364V17.636A1.363,1.363,0,0,0,5.364,19H17.636A1.363,1.363,0,0,0,19,17.636V5.364A1.363,1.363,0,0,0,17.636,4Zm-8.9,12.273H6.73V9.8H8.741Zm-1.026-7.4A1.172,1.172,0,1,1,8.887,7.7,1.173,1.173,0,0,1,7.715,8.876Zm8.56,7.4h-2.01V13.125c0-.751-.014-1.716-1.045-1.716-1.047,0-1.208.818-1.208,1.662v3.2H10V9.8h1.93v.884h.027a2.114,2.114,0,0,1,1.9-1.045c2.037,0,2.413,1.34,2.413,3.083v3.55Z" transform="translate(-4 -4)" fill="currentColor"/>
</svg>
