<svg xmlns="http://www.w3.org/2000/svg" viewBox="0 0 20 20.003">
  <g id="next-js" transform="translate(-0.5 -0.325)">
    <path id="Path_17" data-name="Path 17" d="M9.845.33c-.043,0-.18.018-.3.027A10.024,10.024,0,0,0,2.355,4.5,9.9,9.9,0,0,0,.59,8.871,7.655,7.655,0,0,0,.5,10.328a7.655,7.655,0,0,0,.09,1.457,10.042,10.042,0,0,0,6.841,8.08,10.573,10.573,0,0,0,2.111.438,18.42,18.42,0,0,0,1.916,0,10.1,10.1,0,0,0,3.6-1.054c.172-.088.205-.111.182-.131s-.749-1-1.629-2.184l-1.6-2.16-2-2.966C8.909,10.177,8,8.844,7.994,8.844s-.016,1.316-.02,2.925a22.956,22.956,0,0,1-.043,3,.355.355,0,0,1-.172.178c-.063.031-.117.037-.413.037H7.008l-.09-.057a.366.366,0,0,1-.131-.143l-.041-.088,0-3.92.006-3.922.061-.076a.536.536,0,0,1,.145-.119c.08-.039.111-.043.45-.043.4,0,.465.016.569.129.029.031,1.114,1.666,2.413,3.634s3.073,4.657,3.945,5.977l1.584,2.4L16,18.7a10.266,10.266,0,0,0,2.055-1.8,9.956,9.956,0,0,0,2.354-5.112,7.655,7.655,0,0,0,.09-1.457,7.655,7.655,0,0,0-.09-1.457A10.042,10.042,0,0,0,13.569.791,10.5,10.5,0,0,0,11.487.355C11.3.336,10.007.314,9.845.33Zm4.094,6.049a.394.394,0,0,1,.2.231c.016.051.02,1.138.016,3.587l-.006,3.515-.62-.95-.622-.95V9.257c0-1.652.008-2.581.02-2.626a.4.4,0,0,1,.194-.246c.08-.041.109-.045.416-.045.289,0,.34,0,.4.039Z" transform="translate(0 0)"/>
    <path id="Path_18" data-name="Path 18" d="M757.581,943.041c-.068.043-.09.072-.029.039.043-.026.113-.078.1-.08A.4.4,0,0,0,757.581,943.041Zm-.135.088c-.035.027-.035.029.008.008a.119.119,0,0,0,.043-.029C757.5,943.092,757.487,943.1,757.446,943.129Zm-.1.059c-.035.027-.035.029.008.008a.119.119,0,0,0,.043-.029C757.4,943.151,757.389,943.155,757.348,943.188Zm-.1.059c-.035.027-.035.029.008.008a.119.119,0,0,0,.043-.029C757.3,943.209,757.292,943.213,757.25,943.246Zm-.149.078c-.074.039-.07.055,0,.018a.2.2,0,0,0,.059-.039C757.164,943.289,757.162,943.291,757.1,943.325Z" transform="translate(-741.757 -924.246)"/>
  </g>s
</svg>
