<svg xmlns="http://www.w3.org/2000/svg" viewBox="0 0 20 17.811">
  <g id="react-2" transform="translate(-175.7 -78)">
    <path id="Path_14" data-name="Path 14" d="M195.7,86.907c0-1.325-1.659-2.581-4.2-3.359.587-2.593.326-4.656-.823-5.316A1.787,1.787,0,0,0,189.76,78v.909a.944.944,0,0,1,.465.106c.554.318.795,1.529.607,3.086-.045.383-.118.787-.208,1.2a19.757,19.757,0,0,0-2.589-.444,19.888,19.888,0,0,0-1.7-2.038,6.013,6.013,0,0,1,3.424-1.912V78c-1.121,0-2.589.8-4.073,2.185-1.484-1.378-2.952-2.169-4.073-2.169v.909a6.039,6.039,0,0,1,3.424,1.9,19.253,19.253,0,0,0-1.684,2.034,19.035,19.035,0,0,0-2.593.448c-.094-.408-.163-.8-.212-1.182-.192-1.557.045-2.768.6-3.09a.907.907,0,0,1,.469-.106V78.02a1.818,1.818,0,0,0-.921.228c-1.146.66-1.4,2.719-.811,5.3-2.536.783-4.187,2.034-4.187,3.355s1.659,2.581,4.2,3.359c-.587,2.593-.326,4.656.823,5.316a1.792,1.792,0,0,0,.917.228c1.121,0,2.589-.8,4.073-2.185,1.484,1.378,2.952,2.169,4.073,2.169a1.818,1.818,0,0,0,.921-.228c1.146-.66,1.4-2.719.811-5.3C194.049,89.484,195.7,88.228,195.7,86.907Zm-5.308-2.719c-.151.526-.338,1.068-.55,1.61-.167-.326-.342-.652-.534-.978s-.387-.644-.587-.954C189.3,83.952,189.858,84.058,190.392,84.188Zm-1.867,4.342c-.318.55-.644,1.072-.982,1.557-.607.053-1.223.082-1.843.082s-1.231-.029-1.834-.077q-.508-.728-.987-1.549-.465-.8-.848-1.622c.253-.546.538-1.093.844-1.627.318-.55.644-1.072.982-1.557.607-.053,1.223-.082,1.843-.082s1.231.029,1.835.077q.508.728.987,1.549.465.8.848,1.623C189.112,87.45,188.831,88,188.525,88.53Zm1.317-.53c.22.546.408,1.093.563,1.622-.534.13-1.1.241-1.68.326.2-.314.4-.636.587-.966s.363-.656.53-.982Zm-4.134,4.35a16.807,16.807,0,0,1-1.133-1.3c.367.016.742.029,1.121.029s.762-.008,1.133-.029A15.91,15.91,0,0,1,185.708,92.35Zm-3.033-2.4c-.579-.086-1.137-.192-1.671-.322.151-.526.338-1.068.55-1.61.167.326.342.652.534.978S182.475,89.639,182.675,89.949Zm3.013-8.483a16.81,16.81,0,0,1,1.133,1.3c-.367-.016-.742-.029-1.121-.029s-.762.008-1.133.029A15.913,15.913,0,0,1,185.688,81.465Zm-3.017,2.4c-.2.314-.4.636-.587.966s-.363.652-.53.978c-.22-.546-.408-1.093-.563-1.623.534-.126,1.1-.236,1.68-.322Zm-3.689,5.1c-1.443-.616-2.377-1.423-2.377-2.063s.934-1.451,2.377-2.063c.351-.151.734-.285,1.129-.412a19.58,19.58,0,0,0,.917,2.483,19.305,19.305,0,0,0-.905,2.47C179.72,89.26,179.336,89.121,178.982,88.97Zm2.193,5.826c-.554-.318-.795-1.529-.607-3.086.045-.383.118-.787.208-1.2a19.757,19.757,0,0,0,2.589.444,19.885,19.885,0,0,0,1.7,2.038,6.013,6.013,0,0,1-3.424,1.912A.973.973,0,0,1,181.175,94.8Zm9.67-3.106c.192,1.557-.045,2.768-.6,3.09a.907.907,0,0,1-.469.106,6.039,6.039,0,0,1-3.424-1.9,19.252,19.252,0,0,0,1.684-2.034,19.037,19.037,0,0,0,2.593-.448A11.417,11.417,0,0,1,190.845,91.689Zm1.57-2.719c-.351.151-.734.285-1.129.412a19.584,19.584,0,0,0-.917-2.483,19.3,19.3,0,0,0,.9-2.47c.4.126.787.265,1.146.416,1.443.616,2.377,1.423,2.377,2.063S193.857,88.359,192.414,88.97Z" transform="translate(0)" fill="#61dafb"/>
    <circle id="Ellipse_7" data-name="Ellipse 7" cx="1.863" cy="1.863" r="1.863" transform="translate(183.833 85.044)" fill="#61dafb"/>
  </g>
</svg>
